<mxfile host="65bd71144e">
    <diagram id="L1J3uJSilx2it5hwOt1s" name="Architecture">
        <mxGraphModel dx="1252" dy="767" grid="1" gridSize="10" guides="1" tooltips="1" connect="1" arrows="1" fold="1" page="1" pageScale="1" pageWidth="1920" pageHeight="1200" background="#ffffff" math="0" shadow="0">
            <root>
                <mxCell id="0"/>
                <mxCell id="1" parent="0"/>
                <mxCell id="2" style="edgeStyle=none;html=1;entryX=0;entryY=0.5;entryDx=0;entryDy=0;" parent="1" source="3" target="5" edge="1">
                    <mxGeometry relative="1" as="geometry"/>
                </mxCell>
                <mxCell id="3" value="Stats Scraper" style="rounded=1;whiteSpace=wrap;html=1;fillColor=#dae8fc;strokeColor=#6c8ebf;" parent="1" vertex="1">
                    <mxGeometry x="440" y="530" width="120" height="60" as="geometry"/>
                </mxCell>
                <mxCell id="4" style="edgeStyle=none;html=1;" parent="1" source="5" edge="1">
                    <mxGeometry relative="1" as="geometry">
                        <mxPoint x="920" y="560" as="targetPoint"/>
                    </mxGeometry>
                </mxCell>
                <mxCell id="5" value="ZK Proof Generator" style="rounded=1;whiteSpace=wrap;html=1;fillColor=#dae8fc;strokeColor=#6c8ebf;" parent="1" vertex="1">
                    <mxGeometry x="680" y="530" width="120" height="60" as="geometry"/>
                </mxCell>
                <mxCell id="WW52FeZ79vNhtEI2i096-45" style="edgeStyle=none;html=1;exitX=0;exitY=0.5;exitDx=0;exitDy=0;entryX=0;entryY=0.5;entryDx=0;entryDy=0;" edge="1" parent="1" source="6" target="10">
                    <mxGeometry relative="1" as="geometry"/>
                </mxCell>
                <mxCell id="WW52FeZ79vNhtEI2i096-47" style="edgeStyle=none;html=1;exitX=0;exitY=0.5;exitDx=0;exitDy=0;entryX=0;entryY=0.5;entryDx=0;entryDy=0;" edge="1" parent="1" source="6" target="10">
                    <mxGeometry relative="1" as="geometry"/>
                </mxCell>
                <mxCell id="WW52FeZ79vNhtEI2i096-48" style="edgeStyle=none;html=1;exitX=0;exitY=0.5;exitDx=0;exitDy=0;entryX=0;entryY=0.5;entryDx=0;entryDy=0;" edge="1" parent="1" source="6" target="10">
                    <mxGeometry relative="1" as="geometry"/>
                </mxCell>
                <mxCell id="6" value="" style="rounded=1;whiteSpace=wrap;html=1;fillColor=#fff2cc;strokeColor=#d6b656;" parent="1" vertex="1">
                    <mxGeometry x="920" y="400" width="440" height="320" as="geometry"/>
                </mxCell>
                <mxCell id="8" value="&lt;font style=&quot;color: light-dark(rgb(0, 0, 0), rgb(0, 0, 0));&quot;&gt;Smart Contract&lt;/font&gt;" style="text;html=1;align=center;verticalAlign=middle;whiteSpace=wrap;rounded=0;" parent="1" vertex="1">
                    <mxGeometry x="975" y="410" width="130" height="30" as="geometry"/>
                </mxCell>
                <mxCell id="9" value="ZKP Verifier" style="rounded=1;whiteSpace=wrap;html=1;fillColor=#f8cecc;strokeColor=#b85450;" parent="1" vertex="1">
                    <mxGeometry x="960" y="580" width="120" height="60" as="geometry"/>
                </mxCell>
                <mxCell id="WW52FeZ79vNhtEI2i096-50" style="edgeStyle=none;html=1;entryX=0.5;entryY=0;entryDx=0;entryDy=0;" edge="1" parent="1" source="10" target="9">
                    <mxGeometry relative="1" as="geometry"/>
                </mxCell>
                <mxCell id="WW52FeZ79vNhtEI2i096-51" style="edgeStyle=none;html=1;entryX=0.5;entryY=0;entryDx=0;entryDy=0;" edge="1" parent="1" source="10" target="35">
                    <mxGeometry relative="1" as="geometry"/>
                </mxCell>
                <mxCell id="10" value="Onchain Identidy" style="whiteSpace=wrap;html=1;rounded=1;fillColor=#f8cecc;strokeColor=#b85450;" parent="1" vertex="1">
                    <mxGeometry x="1080" y="480" width="120" height="60" as="geometry"/>
                </mxCell>
                <mxCell id="13" value="" style="endArrow=classic;html=1;strokeColor=light-dark(#000000,#000000);" parent="1" target="6" edge="1">
                    <mxGeometry width="50" height="50" relative="1" as="geometry">
                        <mxPoint x="920" y="560" as="sourcePoint"/>
                        <mxPoint x="970" y="510" as="targetPoint"/>
                    </mxGeometry>
                </mxCell>
                <mxCell id="20" value="User" style="rounded=1;whiteSpace=wrap;html=1;fillColor=#d5e8d4;strokeColor=#82b366;" parent="1" vertex="1">
                    <mxGeometry x="1190" y="860" width="120" height="60" as="geometry"/>
                </mxCell>
                <mxCell id="21" value="Role" style="rounded=1;whiteSpace=wrap;html=1;fillColor=#d5e8d4;strokeColor=#82b366;" parent="1" vertex="1">
                    <mxGeometry x="440" y="700" width="80" height="30" as="geometry"/>
                </mxCell>
                <mxCell id="22" value="Offchain" style="rounded=1;whiteSpace=wrap;html=1;fillColor=#dae8fc;strokeColor=#6c8ebf;" parent="1" vertex="1">
                    <mxGeometry x="440" y="760" width="80" height="30" as="geometry"/>
                </mxCell>
                <mxCell id="23" value="Onchain" style="rounded=1;whiteSpace=wrap;html=1;fillColor=#fff2cc;strokeColor=#d6b656;" parent="1" vertex="1">
                    <mxGeometry x="440" y="820" width="80" height="30" as="geometry"/>
                </mxCell>
                <mxCell id="28" value="Business" style="rounded=1;whiteSpace=wrap;html=1;fillColor=#d5e8d4;strokeColor=#82b366;" parent="1" vertex="1">
                    <mxGeometry x="975" y="860" width="120" height="60" as="geometry"/>
                </mxCell>
                <mxCell id="32" value="1. Bind social media and get scores&lt;br&gt;&lt;div style=&quot;text-align: left;&quot;&gt;&lt;span style=&quot;background-color: transparent;&quot;&gt;2. Apply coupons and purchase&lt;/span&gt;&lt;/div&gt;" style="text;html=1;align=center;verticalAlign=middle;whiteSpace=wrap;rounded=0;" parent="1" vertex="1">
                    <mxGeometry x="1175" y="780" width="205" height="30" as="geometry"/>
                </mxCell>
                <mxCell id="lFwoF6bqFf01xsQMU0sy-33" value="Account Stats" style="text;html=1;align=center;verticalAlign=middle;whiteSpace=wrap;rounded=0;" parent="1" vertex="1">
                    <mxGeometry x="570" y="530" width="90" height="30" as="geometry"/>
                </mxCell>
                <mxCell id="lFwoF6bqFf01xsQMU0sy-34" value="Update Request" style="text;html=1;align=center;verticalAlign=middle;whiteSpace=wrap;rounded=0;" parent="1" vertex="1">
                    <mxGeometry x="810" y="530" width="90" height="30" as="geometry"/>
                </mxCell>
                <mxCell id="34" value="Contract" style="rounded=1;whiteSpace=wrap;html=1;fillColor=#f8cecc;strokeColor=#b85450;" vertex="1" parent="1">
                    <mxGeometry x="440" y="880" width="80" height="30" as="geometry"/>
                </mxCell>
                <mxCell id="35" value="" style="whiteSpace=wrap;html=1;rounded=1;fillColor=#f8cecc;strokeColor=#b85450;" vertex="1" parent="1">
                    <mxGeometry x="1170" y="580" width="120" height="60" as="geometry"/>
                </mxCell>
                <mxCell id="37" value="" style="whiteSpace=wrap;html=1;rounded=1;fillColor=#f8cecc;strokeColor=#b85450;" vertex="1" parent="1">
                    <mxGeometry x="1180" y="590" width="120" height="60" as="geometry"/>
                </mxCell>
                <mxCell id="38" value="" style="whiteSpace=wrap;html=1;rounded=1;fillColor=#f8cecc;strokeColor=#b85450;" vertex="1" parent="1">
                    <mxGeometry x="1190" y="600" width="120" height="60" as="geometry"/>
                </mxCell>
                <mxCell id="39" value="Merchant" style="whiteSpace=wrap;html=1;rounded=1;fillColor=#f8cecc;strokeColor=#b85450;" vertex="1" parent="1">
                    <mxGeometry x="1200" y="610" width="120" height="60" as="geometry"/>
                </mxCell>
                <mxCell id="WW52FeZ79vNhtEI2i096-40" value="Scrape user&#39;s ofchain account info" style="dashed=0;html=1;fillColor=#F0F2F5;strokeColor=none;align=center;rounded=1;arcSize=10;fontColor=#596780;fontStyle=1;fontSize=11;shadow=0" vertex="1" parent="1">
                    <mxGeometry x="400" y="600" width="200" height="20" as="geometry"/>
                </mxCell>
                <mxCell id="WW52FeZ79vNhtEI2i096-42" value="Generate ZKP for offchain data update validation" style="dashed=0;html=1;fillColor=#F0F2F5;strokeColor=none;align=center;rounded=1;arcSize=10;fontColor=#596780;fontStyle=1;fontSize=11;shadow=0" vertex="1" parent="1">
                    <mxGeometry x="610" y="600" width="260" height="20" as="geometry"/>
                </mxCell>
                <mxCell id="WW52FeZ79vNhtEI2i096-43" value="Verify ZKP" style="dashed=0;html=1;fillColor=#F0F2F5;strokeColor=none;align=center;rounded=1;arcSize=10;fontColor=#596780;fontStyle=1;fontSize=11;shadow=0" vertex="1" parent="1">
                    <mxGeometry x="990" y="650" width="60" height="20" as="geometry"/>
                </mxCell>
                <mxCell id="WW52FeZ79vNhtEI2i096-49" value="" style="endArrow=classic;html=1;entryX=0;entryY=0.5;entryDx=0;entryDy=0;" edge="1" parent="1" target="10">
                    <mxGeometry width="50" height="50" relative="1" as="geometry">
                        <mxPoint x="920" y="560" as="sourcePoint"/>
                        <mxPoint x="970" y="510" as="targetPoint"/>
                    </mxGeometry>
                </mxCell>
                <mxCell id="WW52FeZ79vNhtEI2i096-52" value="The core contract&amp;nbsp;" style="dashed=0;html=1;fillColor=#F0F2F5;strokeColor=none;align=center;rounded=1;arcSize=10;fontColor=#596780;fontStyle=1;fontSize=11;shadow=0" vertex="1" parent="1">
                    <mxGeometry x="1080" y="450" width="120" height="20" as="geometry"/>
                </mxCell>
                <mxCell id="j-WrDbZMCc16J5JkjGaE-39" value="Trade &amp;amp; Rewards" style="dashed=0;html=1;fillColor=#F0F2F5;strokeColor=none;align=center;rounded=1;arcSize=10;fontColor=#596780;fontStyle=1;fontSize=11;shadow=0" vertex="1" parent="1">
                    <mxGeometry x="1200" y="680" width="120" height="20" as="geometry"/>
                </mxCell>
                <mxCell id="j-WrDbZMCc16J5JkjGaE-40" value="" style="endArrow=classic;html=1;entryX=0.75;entryY=1;entryDx=0;entryDy=0;" edge="1" parent="1" target="6">
                    <mxGeometry width="50" height="50" relative="1" as="geometry">
                        <mxPoint x="1250" y="860" as="sourcePoint"/>
                        <mxPoint x="1300" y="810" as="targetPoint"/>
                    </mxGeometry>
                </mxCell>
                <mxCell id="j-WrDbZMCc16J5JkjGaE-41" value="" style="endArrow=classic;html=1;entryX=0.25;entryY=1;entryDx=0;entryDy=0;" edge="1" parent="1" target="6">
                    <mxGeometry width="50" height="50" relative="1" as="geometry">
                        <mxPoint x="1030" y="860" as="sourcePoint"/>
                        <mxPoint x="1040" y="750" as="targetPoint"/>
                    </mxGeometry>
                </mxCell>
                <mxCell id="j-WrDbZMCc16J5JkjGaE-43" value="1. Register as Merchant&lt;br&gt;&lt;div style=&quot;&quot;&gt;&lt;div style=&quot;&quot;&gt;&lt;span style=&quot;background-color: transparent;&quot;&gt;2. Create products and coupons&lt;/span&gt;&lt;/div&gt;&lt;span style=&quot;background-color: transparent;&quot;&gt;&lt;div style=&quot;&quot;&gt;&lt;span style=&quot;background-color: transparent;&quot;&gt;3. Query matched users and send rewards&lt;/span&gt;&lt;/div&gt;&lt;/span&gt;&lt;/div&gt;" style="text;html=1;align=left;verticalAlign=middle;whiteSpace=wrap;rounded=0;" vertex="1" parent="1">
                    <mxGeometry x="930" y="765" width="232.5" height="60" as="geometry"/>
                </mxCell>
            </root>
        </mxGraphModel>
    </diagram>
    <diagram id="5sAxrjBRKXG2kk2TQi_Q" name="Flow">
        <mxGraphModel dx="1391" dy="852" grid="1" gridSize="10" guides="1" tooltips="1" connect="1" arrows="1" fold="1" page="1" pageScale="1" pageWidth="1920" pageHeight="1200" math="0" shadow="0">
            <root>
                <mxCell id="0"/>
                <mxCell id="1" parent="0"/>
                <mxCell id="6MrxLSPz2OCRYS000vyv-43" value="" style="curved=1;endArrow=classic;html=1;exitX=1;exitY=0;exitDx=0;exitDy=5;exitPerimeter=0;" parent="1" target="-39nq5ZpdxH6TfbfoozZ-6" edge="1">
                    <mxGeometry width="50" height="50" relative="1" as="geometry">
                        <mxPoint x="860" y="470" as="sourcePoint"/>
                        <mxPoint x="860" y="495" as="targetPoint"/>
                        <Array as="points">
                            <mxPoint x="895" y="475"/>
                            <mxPoint x="910" y="495"/>
                        </Array>
                    </mxGeometry>
                </mxCell>
                <mxCell id="-39nq5ZpdxH6TfbfoozZ-1" value="Backend" style="shape=umlLifeline;perimeter=lifelinePerimeter;whiteSpace=wrap;html=1;container=1;dropTarget=0;collapsible=0;recursiveResize=0;outlineConnect=0;portConstraint=eastwest;newEdgeStyle={&quot;edgeStyle&quot;:&quot;elbowEdgeStyle&quot;,&quot;elbow&quot;:&quot;vertical&quot;,&quot;curved&quot;:0,&quot;rounded&quot;:0};" parent="1" vertex="1">
                    <mxGeometry x="610" y="200" width="100" height="400" as="geometry"/>
                </mxCell>
                <mxCell id="-39nq5ZpdxH6TfbfoozZ-2" value="" style="html=1;points=[[0,0,0,0,5],[0,1,0,0,-5],[1,0,0,0,5],[1,1,0,0,-5]];perimeter=orthogonalPerimeter;outlineConnect=0;targetShapes=umlLifeline;portConstraint=eastwest;newEdgeStyle={&quot;curved&quot;:0,&quot;rounded&quot;:0};fillColor=#808080;" parent="-39nq5ZpdxH6TfbfoozZ-1" vertex="1">
                    <mxGeometry x="45" y="70" width="10" height="290" as="geometry"/>
                </mxCell>
                <mxCell id="-39nq5ZpdxH6TfbfoozZ-3" value="Client" style="shape=umlLifeline;perimeter=lifelinePerimeter;whiteSpace=wrap;html=1;container=1;dropTarget=0;collapsible=0;recursiveResize=0;outlineConnect=0;portConstraint=eastwest;newEdgeStyle={&quot;edgeStyle&quot;:&quot;elbowEdgeStyle&quot;,&quot;elbow&quot;:&quot;vertical&quot;,&quot;curved&quot;:0,&quot;rounded&quot;:0};" parent="1" vertex="1">
                    <mxGeometry x="410" y="200" width="100" height="400" as="geometry"/>
                </mxCell>
                <mxCell id="-39nq5ZpdxH6TfbfoozZ-4" value="" style="html=1;points=[[0,0,0,0,5],[0,1,0,0,-5],[1,0,0,0,5],[1,1,0,0,-5]];perimeter=orthogonalPerimeter;outlineConnect=0;targetShapes=umlLifeline;portConstraint=eastwest;newEdgeStyle={&quot;curved&quot;:0,&quot;rounded&quot;:0};" parent="-39nq5ZpdxH6TfbfoozZ-3" vertex="1">
                    <mxGeometry x="45" y="60" width="10" height="320" as="geometry"/>
                </mxCell>
                <mxCell id="-39nq5ZpdxH6TfbfoozZ-5" value="Contract" style="shape=umlLifeline;perimeter=lifelinePerimeter;whiteSpace=wrap;html=1;container=1;dropTarget=0;collapsible=0;recursiveResize=0;outlineConnect=0;portConstraint=eastwest;newEdgeStyle={&quot;edgeStyle&quot;:&quot;elbowEdgeStyle&quot;,&quot;elbow&quot;:&quot;vertical&quot;,&quot;curved&quot;:0,&quot;rounded&quot;:0};" parent="1" vertex="1">
                    <mxGeometry x="810" y="200" width="100" height="400" as="geometry"/>
                </mxCell>
                <mxCell id="-39nq5ZpdxH6TfbfoozZ-6" value="" style="html=1;points=[[0,0,0,0,5],[0,1,0,0,-5],[1,0,0,0,5],[1,1,0,0,-5]];perimeter=orthogonalPerimeter;outlineConnect=0;targetShapes=umlLifeline;portConstraint=eastwest;newEdgeStyle={&quot;curved&quot;:0,&quot;rounded&quot;:0};fillColor=#808080;" parent="-39nq5ZpdxH6TfbfoozZ-5" vertex="1">
                    <mxGeometry x="45" y="220" width="10" height="120" as="geometry"/>
                </mxCell>
                <mxCell id="-39nq5ZpdxH6TfbfoozZ-21" value="" style="curved=1;endArrow=classic;html=1;exitX=1;exitY=0;exitDx=0;exitDy=5;exitPerimeter=0;" parent="-39nq5ZpdxH6TfbfoozZ-5" source="-39nq5ZpdxH6TfbfoozZ-6" target="-39nq5ZpdxH6TfbfoozZ-6" edge="1">
                    <mxGeometry width="50" height="50" relative="1" as="geometry">
                        <mxPoint x="10" y="230" as="sourcePoint"/>
                        <mxPoint x="20" y="250" as="targetPoint"/>
                        <Array as="points">
                            <mxPoint x="90" y="230"/>
                            <mxPoint x="105" y="250"/>
                        </Array>
                    </mxGeometry>
                </mxCell>
                <mxCell id="-39nq5ZpdxH6TfbfoozZ-7" value="" style="endArrow=classic;html=1;" parent="1" edge="1">
                    <mxGeometry width="50" height="50" relative="1" as="geometry">
                        <mxPoint x="465.0000000000001" y="270" as="sourcePoint"/>
                        <mxPoint x="655" y="270" as="targetPoint"/>
                    </mxGeometry>
                </mxCell>
                <mxCell id="-39nq5ZpdxH6TfbfoozZ-8" value="Initial `updateScore` req" style="edgeLabel;html=1;align=center;verticalAlign=middle;resizable=0;points=[];" parent="-39nq5ZpdxH6TfbfoozZ-7" vertex="1" connectable="0">
                    <mxGeometry x="-0.1381" relative="1" as="geometry">
                        <mxPoint as="offset"/>
                    </mxGeometry>
                </mxCell>
                <mxCell id="-39nq5ZpdxH6TfbfoozZ-10" value="" style="endArrow=classic;html=1;" parent="1" source="-39nq5ZpdxH6TfbfoozZ-4" edge="1">
                    <mxGeometry width="50" height="50" relative="1" as="geometry">
                        <mxPoint x="510" y="300" as="sourcePoint"/>
                        <mxPoint x="654.5" y="300" as="targetPoint"/>
                    </mxGeometry>
                </mxCell>
                <mxCell id="-39nq5ZpdxH6TfbfoozZ-11" value="Login Accounts" style="edgeLabel;html=1;align=center;verticalAlign=middle;resizable=0;points=[];" parent="-39nq5ZpdxH6TfbfoozZ-10" vertex="1" connectable="0">
                    <mxGeometry x="-0.1381" relative="1" as="geometry">
                        <mxPoint as="offset"/>
                    </mxGeometry>
                </mxCell>
                <mxCell id="-39nq5ZpdxH6TfbfoozZ-12" value="" style="curved=1;endArrow=classic;html=1;" parent="1" target="-39nq5ZpdxH6TfbfoozZ-2" edge="1">
                    <mxGeometry width="50" height="50" relative="1" as="geometry">
                        <mxPoint x="665" y="310" as="sourcePoint"/>
                        <mxPoint x="710" y="380" as="targetPoint"/>
                        <Array as="points">
                            <mxPoint x="760" y="330"/>
                        </Array>
                    </mxGeometry>
                </mxCell>
                <mxCell id="-39nq5ZpdxH6TfbfoozZ-13" value="Scraping data" style="text;html=1;align=left;verticalAlign=middle;whiteSpace=wrap;rounded=0;" parent="1" vertex="1">
                    <mxGeometry x="710" y="300" width="90" height="30" as="geometry"/>
                </mxCell>
                <mxCell id="-39nq5ZpdxH6TfbfoozZ-14" value="" style="curved=1;endArrow=classic;html=1;" parent="1" edge="1">
                    <mxGeometry width="50" height="50" relative="1" as="geometry">
                        <mxPoint x="665" y="340" as="sourcePoint"/>
                        <mxPoint x="665" y="360" as="targetPoint"/>
                        <Array as="points">
                            <mxPoint x="760" y="360"/>
                        </Array>
                    </mxGeometry>
                </mxCell>
                <mxCell id="-39nq5ZpdxH6TfbfoozZ-15" value="Aggregate data" style="text;html=1;align=left;verticalAlign=middle;whiteSpace=wrap;rounded=0;" parent="1" vertex="1">
                    <mxGeometry x="710" y="330" width="90" height="30" as="geometry"/>
                </mxCell>
                <mxCell id="-39nq5ZpdxH6TfbfoozZ-17" value="" style="curved=1;endArrow=classic;html=1;" parent="1" edge="1">
                    <mxGeometry width="50" height="50" relative="1" as="geometry">
                        <mxPoint x="665" y="370" as="sourcePoint"/>
                        <mxPoint x="665" y="390" as="targetPoint"/>
                        <Array as="points">
                            <mxPoint x="760" y="390"/>
                        </Array>
                    </mxGeometry>
                </mxCell>
                <mxCell id="-39nq5ZpdxH6TfbfoozZ-18" value="Gen ZKP" style="text;html=1;align=left;verticalAlign=middle;whiteSpace=wrap;rounded=0;" parent="1" vertex="1">
                    <mxGeometry x="710" y="360" width="90" height="30" as="geometry"/>
                </mxCell>
                <mxCell id="-39nq5ZpdxH6TfbfoozZ-19" value="" style="endArrow=classic;html=1;" parent="1" source="-39nq5ZpdxH6TfbfoozZ-2" target="-39nq5ZpdxH6TfbfoozZ-6" edge="1">
                    <mxGeometry width="50" height="50" relative="1" as="geometry">
                        <mxPoint x="665" y="410" as="sourcePoint"/>
                        <mxPoint x="810" y="410" as="targetPoint"/>
                    </mxGeometry>
                </mxCell>
                <mxCell id="-39nq5ZpdxH6TfbfoozZ-20" value="Submit `updateScoreReq` w/ ZKP" style="edgeLabel;html=1;align=center;verticalAlign=middle;resizable=0;points=[];" parent="-39nq5ZpdxH6TfbfoozZ-19" vertex="1" connectable="0">
                    <mxGeometry x="-0.0695" y="-1" relative="1" as="geometry">
                        <mxPoint as="offset"/>
                    </mxGeometry>
                </mxCell>
                <mxCell id="-39nq5ZpdxH6TfbfoozZ-23" value="Verify ZKP" style="text;html=1;align=left;verticalAlign=middle;whiteSpace=wrap;rounded=0;" parent="1" vertex="1">
                    <mxGeometry x="900" y="410" width="60" height="30" as="geometry"/>
                </mxCell>
                <mxCell id="-39nq5ZpdxH6TfbfoozZ-25" value="Update data" style="text;html=1;align=left;verticalAlign=middle;whiteSpace=wrap;rounded=0;" parent="1" vertex="1">
                    <mxGeometry x="900" y="460" width="70" height="30" as="geometry"/>
                </mxCell>
                <mxCell id="-39nq5ZpdxH6TfbfoozZ-26" value="" style="endArrow=classic;html=1;" parent="1" target="-39nq5ZpdxH6TfbfoozZ-2" edge="1">
                    <mxGeometry width="50" height="50" relative="1" as="geometry">
                        <mxPoint x="860" y="540" as="sourcePoint"/>
                        <mxPoint x="670" y="540" as="targetPoint"/>
                    </mxGeometry>
                </mxCell>
                <mxCell id="-39nq5ZpdxH6TfbfoozZ-27" value="Resp" style="edgeLabel;html=1;align=center;verticalAlign=middle;resizable=0;points=[];" parent="-39nq5ZpdxH6TfbfoozZ-26" vertex="1" connectable="0">
                    <mxGeometry x="-0.0695" y="-1" relative="1" as="geometry">
                        <mxPoint as="offset"/>
                    </mxGeometry>
                </mxCell>
                <mxCell id="-39nq5ZpdxH6TfbfoozZ-28" value="" style="endArrow=classic;html=1;" parent="1" target="-39nq5ZpdxH6TfbfoozZ-4" edge="1">
                    <mxGeometry width="50" height="50" relative="1" as="geometry">
                        <mxPoint x="660" y="560" as="sourcePoint"/>
                        <mxPoint x="510" y="560" as="targetPoint"/>
                    </mxGeometry>
                </mxCell>
                <mxCell id="-39nq5ZpdxH6TfbfoozZ-29" value="Resp" style="edgeLabel;html=1;align=center;verticalAlign=middle;resizable=0;points=[];" parent="-39nq5ZpdxH6TfbfoozZ-28" vertex="1" connectable="0">
                    <mxGeometry x="-0.0695" y="-1" relative="1" as="geometry">
                        <mxPoint as="offset"/>
                    </mxGeometry>
                </mxCell>
                <mxCell id="6MrxLSPz2OCRYS000vyv-3" value="Frontend" style="shape=umlLifeline;perimeter=lifelinePerimeter;whiteSpace=wrap;html=1;container=1;dropTarget=0;collapsible=0;recursiveResize=0;outlineConnect=0;portConstraint=eastwest;newEdgeStyle={&quot;edgeStyle&quot;:&quot;elbowEdgeStyle&quot;,&quot;elbow&quot;:&quot;vertical&quot;,&quot;curved&quot;:0,&quot;rounded&quot;:0};" parent="1" vertex="1">
                    <mxGeometry x="1400" y="200" width="100" height="280" as="geometry"/>
                </mxCell>
                <mxCell id="6MrxLSPz2OCRYS000vyv-4" value="" style="html=1;points=[[0,0,0,0,5],[0,1,0,0,-5],[1,0,0,0,5],[1,1,0,0,-5]];perimeter=orthogonalPerimeter;outlineConnect=0;targetShapes=umlLifeline;portConstraint=eastwest;newEdgeStyle={&quot;curved&quot;:0,&quot;rounded&quot;:0};fillColor=#808080;" parent="6MrxLSPz2OCRYS000vyv-3" vertex="1">
                    <mxGeometry x="45" y="70" width="10" height="100" as="geometry"/>
                </mxCell>
                <mxCell id="6MrxLSPz2OCRYS000vyv-5" value="Client" style="shape=umlLifeline;perimeter=lifelinePerimeter;whiteSpace=wrap;html=1;container=1;dropTarget=0;collapsible=0;recursiveResize=0;outlineConnect=0;portConstraint=eastwest;newEdgeStyle={&quot;edgeStyle&quot;:&quot;elbowEdgeStyle&quot;,&quot;elbow&quot;:&quot;vertical&quot;,&quot;curved&quot;:0,&quot;rounded&quot;:0};" parent="1" vertex="1">
                    <mxGeometry x="1240" y="200" width="100" height="280" as="geometry"/>
                </mxCell>
                <mxCell id="6MrxLSPz2OCRYS000vyv-6" value="" style="html=1;points=[[0,0,0,0,5],[0,1,0,0,-5],[1,0,0,0,5],[1,1,0,0,-5]];perimeter=orthogonalPerimeter;outlineConnect=0;targetShapes=umlLifeline;portConstraint=eastwest;newEdgeStyle={&quot;curved&quot;:0,&quot;rounded&quot;:0};" parent="6MrxLSPz2OCRYS000vyv-5" vertex="1">
                    <mxGeometry x="45" y="60" width="10" height="140" as="geometry"/>
                </mxCell>
                <mxCell id="6MrxLSPz2OCRYS000vyv-7" value="Contract" style="shape=umlLifeline;perimeter=lifelinePerimeter;whiteSpace=wrap;html=1;container=1;dropTarget=0;collapsible=0;recursiveResize=0;outlineConnect=0;portConstraint=eastwest;newEdgeStyle={&quot;edgeStyle&quot;:&quot;elbowEdgeStyle&quot;,&quot;elbow&quot;:&quot;vertical&quot;,&quot;curved&quot;:0,&quot;rounded&quot;:0};" parent="1" vertex="1">
                    <mxGeometry x="1560" y="200" width="100" height="280" as="geometry"/>
                </mxCell>
                <mxCell id="6MrxLSPz2OCRYS000vyv-8" value="" style="html=1;points=[[0,0,0,0,5],[0,1,0,0,-5],[1,0,0,0,5],[1,1,0,0,-5]];perimeter=orthogonalPerimeter;outlineConnect=0;targetShapes=umlLifeline;portConstraint=eastwest;newEdgeStyle={&quot;curved&quot;:0,&quot;rounded&quot;:0};fillColor=#808080;" parent="6MrxLSPz2OCRYS000vyv-7" vertex="1">
                    <mxGeometry x="45" y="80" width="10" height="60" as="geometry"/>
                </mxCell>
                <mxCell id="6MrxLSPz2OCRYS000vyv-9" value="" style="endArrow=classic;html=1;" parent="1" target="6MrxLSPz2OCRYS000vyv-4" edge="1">
                    <mxGeometry width="50" height="50" relative="1" as="geometry">
                        <mxPoint x="1295" y="270" as="sourcePoint"/>
                        <mxPoint x="1430" y="270" as="targetPoint"/>
                    </mxGeometry>
                </mxCell>
                <mxCell id="6MrxLSPz2OCRYS000vyv-10" value="Specify query" style="edgeLabel;html=1;align=center;verticalAlign=middle;resizable=0;points=[];" parent="6MrxLSPz2OCRYS000vyv-9" vertex="1" connectable="0">
                    <mxGeometry x="-0.1381" relative="1" as="geometry">
                        <mxPoint as="offset"/>
                    </mxGeometry>
                </mxCell>
                <mxCell id="6MrxLSPz2OCRYS000vyv-19" value="" style="endArrow=classic;html=1;" parent="1" source="6MrxLSPz2OCRYS000vyv-4" target="6MrxLSPz2OCRYS000vyv-8" edge="1">
                    <mxGeometry width="50" height="50" relative="1" as="geometry">
                        <mxPoint x="1455" y="410" as="sourcePoint"/>
                        <mxPoint x="1600" y="410" as="targetPoint"/>
                        <Array as="points">
                            <mxPoint x="1580" y="280"/>
                        </Array>
                    </mxGeometry>
                </mxCell>
                <mxCell id="6MrxLSPz2OCRYS000vyv-20" value="call `query(queryReq)`" style="edgeLabel;html=1;align=center;verticalAlign=middle;resizable=0;points=[];" parent="6MrxLSPz2OCRYS000vyv-19" vertex="1" connectable="0">
                    <mxGeometry x="-0.0695" y="-1" relative="1" as="geometry">
                        <mxPoint as="offset"/>
                    </mxGeometry>
                </mxCell>
                <mxCell id="6MrxLSPz2OCRYS000vyv-25" value="" style="endArrow=classic;html=1;" parent="1" edge="1">
                    <mxGeometry width="50" height="50" relative="1" as="geometry">
                        <mxPoint x="1450" y="370" as="sourcePoint"/>
                        <mxPoint x="1295" y="370" as="targetPoint"/>
                    </mxGeometry>
                </mxCell>
                <mxCell id="6MrxLSPz2OCRYS000vyv-26" value="return `address[]`" style="edgeLabel;html=1;align=center;verticalAlign=middle;resizable=0;points=[];" parent="6MrxLSPz2OCRYS000vyv-25" vertex="1" connectable="0">
                    <mxGeometry x="-0.0695" y="-1" relative="1" as="geometry">
                        <mxPoint as="offset"/>
                    </mxGeometry>
                </mxCell>
                <mxCell id="6MrxLSPz2OCRYS000vyv-27" value="" style="endArrow=classic;html=1;" parent="1" source="6MrxLSPz2OCRYS000vyv-8" target="6MrxLSPz2OCRYS000vyv-4" edge="1">
                    <mxGeometry width="50" height="50" relative="1" as="geometry">
                        <mxPoint x="1600" y="340" as="sourcePoint"/>
                        <mxPoint x="1460" y="340" as="targetPoint"/>
                        <Array as="points">
                            <mxPoint x="1585" y="340"/>
                        </Array>
                    </mxGeometry>
                </mxCell>
                <mxCell id="6MrxLSPz2OCRYS000vyv-28" value="return `address[]`" style="edgeLabel;html=1;align=center;verticalAlign=middle;resizable=0;points=[];" parent="6MrxLSPz2OCRYS000vyv-27" vertex="1" connectable="0">
                    <mxGeometry x="-0.0695" y="-1" relative="1" as="geometry">
                        <mxPoint as="offset"/>
                    </mxGeometry>
                </mxCell>
                <mxCell id="6MrxLSPz2OCRYS000vyv-29" value="Frontend" style="shape=umlLifeline;perimeter=lifelinePerimeter;whiteSpace=wrap;html=1;container=1;dropTarget=0;collapsible=0;recursiveResize=0;outlineConnect=0;portConstraint=eastwest;newEdgeStyle={&quot;edgeStyle&quot;:&quot;elbowEdgeStyle&quot;,&quot;elbow&quot;:&quot;vertical&quot;,&quot;curved&quot;:0,&quot;rounded&quot;:0};" parent="1" vertex="1">
                    <mxGeometry x="1400" y="600" width="100" height="280" as="geometry"/>
                </mxCell>
                <mxCell id="6MrxLSPz2OCRYS000vyv-30" value="" style="html=1;points=[[0,0,0,0,5],[0,1,0,0,-5],[1,0,0,0,5],[1,1,0,0,-5]];perimeter=orthogonalPerimeter;outlineConnect=0;targetShapes=umlLifeline;portConstraint=eastwest;newEdgeStyle={&quot;curved&quot;:0,&quot;rounded&quot;:0};fillColor=#808080;" parent="6MrxLSPz2OCRYS000vyv-29" vertex="1">
                    <mxGeometry x="45" y="70" width="10" height="100" as="geometry"/>
                </mxCell>
                <mxCell id="6MrxLSPz2OCRYS000vyv-31" value="Client" style="shape=umlLifeline;perimeter=lifelinePerimeter;whiteSpace=wrap;html=1;container=1;dropTarget=0;collapsible=0;recursiveResize=0;outlineConnect=0;portConstraint=eastwest;newEdgeStyle={&quot;edgeStyle&quot;:&quot;elbowEdgeStyle&quot;,&quot;elbow&quot;:&quot;vertical&quot;,&quot;curved&quot;:0,&quot;rounded&quot;:0};" parent="1" vertex="1">
                    <mxGeometry x="1240" y="600" width="100" height="280" as="geometry"/>
                </mxCell>
                <mxCell id="6MrxLSPz2OCRYS000vyv-32" value="" style="html=1;points=[[0,0,0,0,5],[0,1,0,0,-5],[1,0,0,0,5],[1,1,0,0,-5]];perimeter=orthogonalPerimeter;outlineConnect=0;targetShapes=umlLifeline;portConstraint=eastwest;newEdgeStyle={&quot;curved&quot;:0,&quot;rounded&quot;:0};" parent="6MrxLSPz2OCRYS000vyv-31" vertex="1">
                    <mxGeometry x="45" y="60" width="10" height="140" as="geometry"/>
                </mxCell>
                <mxCell id="6MrxLSPz2OCRYS000vyv-33" value="Contract" style="shape=umlLifeline;perimeter=lifelinePerimeter;whiteSpace=wrap;html=1;container=1;dropTarget=0;collapsible=0;recursiveResize=0;outlineConnect=0;portConstraint=eastwest;newEdgeStyle={&quot;edgeStyle&quot;:&quot;elbowEdgeStyle&quot;,&quot;elbow&quot;:&quot;vertical&quot;,&quot;curved&quot;:0,&quot;rounded&quot;:0};" parent="1" vertex="1">
                    <mxGeometry x="1560" y="600" width="100" height="280" as="geometry"/>
                </mxCell>
                <mxCell id="6MrxLSPz2OCRYS000vyv-34" value="" style="html=1;points=[[0,0,0,0,5],[0,1,0,0,-5],[1,0,0,0,5],[1,1,0,0,-5]];perimeter=orthogonalPerimeter;outlineConnect=0;targetShapes=umlLifeline;portConstraint=eastwest;newEdgeStyle={&quot;curved&quot;:0,&quot;rounded&quot;:0};fillColor=#808080;" parent="6MrxLSPz2OCRYS000vyv-33" vertex="1">
                    <mxGeometry x="45" y="80" width="10" height="60" as="geometry"/>
                </mxCell>
                <mxCell id="6MrxLSPz2OCRYS000vyv-35" value="" style="endArrow=classic;html=1;" parent="1" target="6MrxLSPz2OCRYS000vyv-30" edge="1">
                    <mxGeometry width="50" height="50" relative="1" as="geometry">
                        <mxPoint x="1295" y="670" as="sourcePoint"/>
                        <mxPoint x="1430" y="670" as="targetPoint"/>
                    </mxGeometry>
                </mxCell>
                <mxCell id="6MrxLSPz2OCRYS000vyv-36" value="Initiate `getScore`" style="edgeLabel;html=1;align=center;verticalAlign=middle;resizable=0;points=[];" parent="6MrxLSPz2OCRYS000vyv-35" vertex="1" connectable="0">
                    <mxGeometry x="-0.1381" relative="1" as="geometry">
                        <mxPoint as="offset"/>
                    </mxGeometry>
                </mxCell>
                <mxCell id="6MrxLSPz2OCRYS000vyv-37" value="" style="endArrow=classic;html=1;" parent="1" source="6MrxLSPz2OCRYS000vyv-30" target="6MrxLSPz2OCRYS000vyv-34" edge="1">
                    <mxGeometry width="50" height="50" relative="1" as="geometry">
                        <mxPoint x="1455" y="810" as="sourcePoint"/>
                        <mxPoint x="1600" y="810" as="targetPoint"/>
                        <Array as="points">
                            <mxPoint x="1580" y="680"/>
                        </Array>
                    </mxGeometry>
                </mxCell>
                <mxCell id="6MrxLSPz2OCRYS000vyv-38" value="call `getScore(addr)`" style="edgeLabel;html=1;align=center;verticalAlign=middle;resizable=0;points=[];" parent="6MrxLSPz2OCRYS000vyv-37" vertex="1" connectable="0">
                    <mxGeometry x="-0.0695" y="-1" relative="1" as="geometry">
                        <mxPoint as="offset"/>
                    </mxGeometry>
                </mxCell>
                <mxCell id="6MrxLSPz2OCRYS000vyv-39" value="" style="endArrow=classic;html=1;" parent="1" edge="1">
                    <mxGeometry width="50" height="50" relative="1" as="geometry">
                        <mxPoint x="1450" y="770" as="sourcePoint"/>
                        <mxPoint x="1295" y="770" as="targetPoint"/>
                    </mxGeometry>
                </mxCell>
                <mxCell id="6MrxLSPz2OCRYS000vyv-40" value="return `uint`" style="edgeLabel;html=1;align=center;verticalAlign=middle;resizable=0;points=[];" parent="6MrxLSPz2OCRYS000vyv-39" vertex="1" connectable="0">
                    <mxGeometry x="-0.0695" y="-1" relative="1" as="geometry">
                        <mxPoint as="offset"/>
                    </mxGeometry>
                </mxCell>
                <mxCell id="6MrxLSPz2OCRYS000vyv-41" value="" style="endArrow=classic;html=1;" parent="1" source="6MrxLSPz2OCRYS000vyv-34" target="6MrxLSPz2OCRYS000vyv-30" edge="1">
                    <mxGeometry width="50" height="50" relative="1" as="geometry">
                        <mxPoint x="1600" y="740" as="sourcePoint"/>
                        <mxPoint x="1460" y="740" as="targetPoint"/>
                        <Array as="points">
                            <mxPoint x="1585" y="740"/>
                        </Array>
                    </mxGeometry>
                </mxCell>
                <mxCell id="6MrxLSPz2OCRYS000vyv-42" value="return `uint`" style="edgeLabel;html=1;align=center;verticalAlign=middle;resizable=0;points=[];" parent="6MrxLSPz2OCRYS000vyv-41" vertex="1" connectable="0">
                    <mxGeometry x="-0.0695" y="-1" relative="1" as="geometry">
                        <mxPoint as="offset"/>
                    </mxGeometry>
                </mxCell>
                <mxCell id="-fHnBPwAd7XmmDAAWjFV-1" value="Updating Score (Offchain Part)" style="text;html=1;align=center;verticalAlign=middle;whiteSpace=wrap;rounded=0;fontSize=24;" vertex="1" parent="1">
                    <mxGeometry x="470" y="130" width="430" height="30" as="geometry"/>
                </mxCell>
                <mxCell id="-fHnBPwAd7XmmDAAWjFV-3" value="Find Matched Users" style="text;html=1;align=center;verticalAlign=middle;whiteSpace=wrap;rounded=0;fontSize=24;" vertex="1" parent="1">
                    <mxGeometry x="1240" y="130" width="420" height="30" as="geometry"/>
                </mxCell>
                <mxCell id="-fHnBPwAd7XmmDAAWjFV-4" value="Fetch Identity Scores" style="text;html=1;align=center;verticalAlign=middle;whiteSpace=wrap;rounded=0;fontSize=24;" vertex="1" parent="1">
                    <mxGeometry x="1240" y="530" width="420" height="30" as="geometry"/>
                </mxCell>
            </root>
        </mxGraphModel>
    </diagram>
    <diagram id="KDj-dLbGgmcctaezUyw9" name="Flow-Onchain">
        <mxGraphModel dx="963" dy="590" grid="1" gridSize="10" guides="1" tooltips="1" connect="1" arrows="1" fold="1" page="1" pageScale="1" pageWidth="1920" pageHeight="1200" math="0" shadow="0">
            <root>
                <mxCell id="0"/>
                <mxCell id="1" parent="0"/>
                <mxCell id="QQ7fAW_9GDJI_9lPfiGl-25" value="" style="endArrow=classic;html=1;" edge="1" parent="1">
                    <mxGeometry width="50" height="50" relative="1" as="geometry">
                        <mxPoint x="370" y="300" as="sourcePoint"/>
                        <mxPoint x="175" y="300" as="targetPoint"/>
                    </mxGeometry>
                </mxCell>
                <mxCell id="QQ7fAW_9GDJI_9lPfiGl-26" value="Resp" style="edgeLabel;html=1;align=center;verticalAlign=middle;resizable=0;points=[];" vertex="1" connectable="0" parent="QQ7fAW_9GDJI_9lPfiGl-25">
                    <mxGeometry x="-0.0695" y="-1" relative="1" as="geometry">
                        <mxPoint as="offset"/>
                    </mxGeometry>
                </mxCell>
                <mxCell id="QQ7fAW_9GDJI_9lPfiGl-2" value="IDProtocol" style="shape=umlLifeline;perimeter=lifelinePerimeter;whiteSpace=wrap;html=1;container=1;dropTarget=0;collapsible=0;recursiveResize=0;outlineConnect=0;portConstraint=eastwest;newEdgeStyle={&quot;edgeStyle&quot;:&quot;elbowEdgeStyle&quot;,&quot;elbow&quot;:&quot;vertical&quot;,&quot;curved&quot;:0,&quot;rounded&quot;:0};" vertex="1" parent="1">
                    <mxGeometry x="320" y="120" width="100" height="360" as="geometry"/>
                </mxCell>
                <mxCell id="QQ7fAW_9GDJI_9lPfiGl-3" value="&lt;span style=&quot;font-family: monospace; font-size: 0px; text-align: start;&quot;&gt;%3CmxGraphModel%3E%3Croot%3E%3CmxCell%20id%3D%220%22%2F%3E%3CmxCell%20id%3D%221%22%20parent%3D%220%22%2F%3E%3CmxCell%20id%3D%222%22%20value%3D%22%22%20style%3D%22html%3D1%3Bpoints%3D%5B%5B0%2C0%2C0%2C0%2C5%5D%2C%5B0%2C1%2C0%2C0%2C-5%5D%2C%5B1%2C0%2C0%2C0%2C5%5D%2C%5B1%2C1%2C0%2C0%2C-5%5D%5D%3Bperimeter%3DorthogonalPerimeter%3BoutlineConnect%3D0%3BtargetShapes%3DumlLifeline%3BportConstraint%3Deastwest%3BnewEdgeStyle%3D%7B%26quot%3Bcurved%26quot%3B%3A0%2C%26quot%3Brounded%26quot%3B%3A0%7D%3BfillColor%3D%23808080%3B%22%20vertex%3D%221%22%20parent%3D%221%22%3E%3CmxGeometry%20x%3D%22365%22%20y%3D%22190%22%20width%3D%2210%22%20height%3D%22120%22%20as%3D%22geometry%22%2F%3E%3C%2FmxCell%3E%3C%2Froot%3E%3C%2FmxGraphModel%3E&lt;/span&gt;" style="html=1;points=[[0,0,0,0,5],[0,1,0,0,-5],[1,0,0,0,5],[1,1,0,0,-5]];perimeter=orthogonalPerimeter;outlineConnect=0;targetShapes=umlLifeline;portConstraint=eastwest;newEdgeStyle={&quot;curved&quot;:0,&quot;rounded&quot;:0};fillColor=#808080;" vertex="1" parent="QQ7fAW_9GDJI_9lPfiGl-2">
                    <mxGeometry x="45" y="70" width="10" height="120" as="geometry"/>
                </mxCell>
                <mxCell id="aP29Cbiko4omW_pPDUiW-27" value="" style="endArrow=classic;html=1;entryX=0;entryY=0;entryDx=0;entryDy=5;entryPerimeter=0;" edge="1" parent="QQ7fAW_9GDJI_9lPfiGl-2" target="aP29Cbiko4omW_pPDUiW-26">
                    <mxGeometry width="50" height="50" relative="1" as="geometry">
                        <mxPoint x="-145" y="245" as="sourcePoint"/>
                        <mxPoint x="40" y="250" as="targetPoint"/>
                    </mxGeometry>
                </mxCell>
                <mxCell id="aP29Cbiko4omW_pPDUiW-28" value="addCoupon" style="edgeLabel;html=1;align=center;verticalAlign=middle;resizable=0;points=[];" vertex="1" connectable="0" parent="aP29Cbiko4omW_pPDUiW-27">
                    <mxGeometry x="-0.0695" y="-1" relative="1" as="geometry">
                        <mxPoint as="offset"/>
                    </mxGeometry>
                </mxCell>
                <mxCell id="aP29Cbiko4omW_pPDUiW-30" value="" style="endArrow=classic;html=1;entryX=0;entryY=0;entryDx=0;entryDy=5;entryPerimeter=0;" edge="1" parent="QQ7fAW_9GDJI_9lPfiGl-2" target="aP29Cbiko4omW_pPDUiW-29">
                    <mxGeometry width="50" height="50" relative="1" as="geometry">
                        <mxPoint x="-145" y="275" as="sourcePoint"/>
                        <mxPoint x="40" y="280" as="targetPoint"/>
                    </mxGeometry>
                </mxCell>
                <mxCell id="aP29Cbiko4omW_pPDUiW-31" value="addStock" style="edgeLabel;html=1;align=center;verticalAlign=middle;resizable=0;points=[];" vertex="1" connectable="0" parent="aP29Cbiko4omW_pPDUiW-30">
                    <mxGeometry x="-0.0695" y="-1" relative="1" as="geometry">
                        <mxPoint as="offset"/>
                    </mxGeometry>
                </mxCell>
                <mxCell id="QQ7fAW_9GDJI_9lPfiGl-4" value="Merchant" style="shape=umlLifeline;perimeter=lifelinePerimeter;whiteSpace=wrap;html=1;container=1;dropTarget=0;collapsible=0;recursiveResize=0;outlineConnect=0;portConstraint=eastwest;newEdgeStyle={&quot;edgeStyle&quot;:&quot;elbowEdgeStyle&quot;,&quot;elbow&quot;:&quot;vertical&quot;,&quot;curved&quot;:0,&quot;rounded&quot;:0};" vertex="1" parent="1">
                    <mxGeometry x="120" y="120" width="100" height="360" as="geometry"/>
                </mxCell>
                <mxCell id="QQ7fAW_9GDJI_9lPfiGl-5" value="" style="html=1;points=[[0,0,0,0,5],[0,1,0,0,-5],[1,0,0,0,5],[1,1,0,0,-5]];perimeter=orthogonalPerimeter;outlineConnect=0;targetShapes=umlLifeline;portConstraint=eastwest;newEdgeStyle={&quot;curved&quot;:0,&quot;rounded&quot;:0};" vertex="1" parent="QQ7fAW_9GDJI_9lPfiGl-4">
                    <mxGeometry x="45" y="60" width="10" height="240" as="geometry"/>
                </mxCell>
                <mxCell id="QQ7fAW_9GDJI_9lPfiGl-6" value="Merchant Contract" style="shape=umlLifeline;perimeter=lifelinePerimeter;whiteSpace=wrap;html=1;container=1;dropTarget=0;collapsible=0;recursiveResize=0;outlineConnect=0;portConstraint=eastwest;newEdgeStyle={&quot;edgeStyle&quot;:&quot;elbowEdgeStyle&quot;,&quot;elbow&quot;:&quot;vertical&quot;,&quot;curved&quot;:0,&quot;rounded&quot;:0};" vertex="1" parent="1">
                    <mxGeometry x="520" y="120" width="100" height="360" as="geometry"/>
                </mxCell>
                <mxCell id="QQ7fAW_9GDJI_9lPfiGl-7" value="" style="html=1;points=[[0,0,0,0,5],[0,1,0,0,-5],[1,0,0,0,5],[1,1,0,0,-5]];perimeter=orthogonalPerimeter;outlineConnect=0;targetShapes=umlLifeline;portConstraint=eastwest;newEdgeStyle={&quot;curved&quot;:0,&quot;rounded&quot;:0};fillColor=#808080;" vertex="1" parent="QQ7fAW_9GDJI_9lPfiGl-6">
                    <mxGeometry x="45" y="130" width="10" height="40" as="geometry"/>
                </mxCell>
                <mxCell id="aP29Cbiko4omW_pPDUiW-25" value="" style="html=1;points=[[0,0,0,0,5],[0,1,0,0,-5],[1,0,0,0,5],[1,1,0,0,-5]];perimeter=orthogonalPerimeter;outlineConnect=0;targetShapes=umlLifeline;portConstraint=eastwest;newEdgeStyle={&quot;curved&quot;:0,&quot;rounded&quot;:0};fillColor=#808080;" vertex="1" parent="QQ7fAW_9GDJI_9lPfiGl-6">
                    <mxGeometry x="45" y="210" width="10" height="20" as="geometry"/>
                </mxCell>
                <mxCell id="aP29Cbiko4omW_pPDUiW-26" value="" style="html=1;points=[[0,0,0,0,5],[0,1,0,0,-5],[1,0,0,0,5],[1,1,0,0,-5]];perimeter=orthogonalPerimeter;outlineConnect=0;targetShapes=umlLifeline;portConstraint=eastwest;newEdgeStyle={&quot;curved&quot;:0,&quot;rounded&quot;:0};fillColor=#808080;" vertex="1" parent="QQ7fAW_9GDJI_9lPfiGl-6">
                    <mxGeometry x="45" y="240" width="10" height="20" as="geometry"/>
                </mxCell>
                <mxCell id="aP29Cbiko4omW_pPDUiW-29" value="" style="html=1;points=[[0,0,0,0,5],[0,1,0,0,-5],[1,0,0,0,5],[1,1,0,0,-5]];perimeter=orthogonalPerimeter;outlineConnect=0;targetShapes=umlLifeline;portConstraint=eastwest;newEdgeStyle={&quot;curved&quot;:0,&quot;rounded&quot;:0};fillColor=#808080;" vertex="1" parent="QQ7fAW_9GDJI_9lPfiGl-6">
                    <mxGeometry x="45" y="270" width="10" height="20" as="geometry"/>
                </mxCell>
                <mxCell id="QQ7fAW_9GDJI_9lPfiGl-9" value="" style="endArrow=classic;html=1;" edge="1" parent="1">
                    <mxGeometry width="50" height="50" relative="1" as="geometry">
                        <mxPoint x="175.0000000000001" y="190" as="sourcePoint"/>
                        <mxPoint x="365" y="190" as="targetPoint"/>
                    </mxGeometry>
                </mxCell>
                <mxCell id="QQ7fAW_9GDJI_9lPfiGl-10" value="Initial `register` req" style="edgeLabel;html=1;align=center;verticalAlign=middle;resizable=0;points=[];" vertex="1" connectable="0" parent="QQ7fAW_9GDJI_9lPfiGl-9">
                    <mxGeometry x="-0.1381" relative="1" as="geometry">
                        <mxPoint as="offset"/>
                    </mxGeometry>
                </mxCell>
                <mxCell id="QQ7fAW_9GDJI_9lPfiGl-13" value="" style="curved=1;endArrow=classic;html=1;" edge="1" parent="1">
                    <mxGeometry width="50" height="50" relative="1" as="geometry">
                        <mxPoint x="375" y="210" as="sourcePoint"/>
                        <mxPoint x="375" y="230" as="targetPoint"/>
                        <Array as="points">
                            <mxPoint x="470" y="230"/>
                        </Array>
                    </mxGeometry>
                </mxCell>
                <mxCell id="QQ7fAW_9GDJI_9lPfiGl-14" value="Validation" style="text;html=1;align=left;verticalAlign=middle;whiteSpace=wrap;rounded=0;" vertex="1" parent="1">
                    <mxGeometry x="420" y="200" width="90" height="30" as="geometry"/>
                </mxCell>
                <mxCell id="QQ7fAW_9GDJI_9lPfiGl-19" value="" style="endArrow=classic;html=1;" edge="1" parent="1">
                    <mxGeometry width="50" height="50" relative="1" as="geometry">
                        <mxPoint x="375" y="250" as="sourcePoint"/>
                        <mxPoint x="565" y="250" as="targetPoint"/>
                    </mxGeometry>
                </mxCell>
                <mxCell id="QQ7fAW_9GDJI_9lPfiGl-20" value="Create a new MerchantContract" style="edgeLabel;html=1;align=center;verticalAlign=middle;resizable=0;points=[];" vertex="1" connectable="0" parent="QQ7fAW_9GDJI_9lPfiGl-19">
                    <mxGeometry x="-0.0695" y="-1" relative="1" as="geometry">
                        <mxPoint as="offset"/>
                    </mxGeometry>
                </mxCell>
                <mxCell id="aP29Cbiko4omW_pPDUiW-1" value="Merchant Registration" style="text;html=1;align=center;verticalAlign=middle;whiteSpace=wrap;rounded=0;fontSize=24;" vertex="1" parent="1">
                    <mxGeometry x="150" y="70" width="430" height="30" as="geometry"/>
                </mxCell>
                <mxCell id="aP29Cbiko4omW_pPDUiW-3" value="" style="curved=1;endArrow=classic;html=1;" edge="1" parent="1">
                    <mxGeometry width="50" height="50" relative="1" as="geometry">
                        <mxPoint x="375" y="270" as="sourcePoint"/>
                        <mxPoint x="375" y="290" as="targetPoint"/>
                        <Array as="points">
                            <mxPoint x="470" y="290"/>
                        </Array>
                    </mxGeometry>
                </mxCell>
                <mxCell id="aP29Cbiko4omW_pPDUiW-4" value="Store merchant info" style="text;html=1;align=left;verticalAlign=middle;whiteSpace=wrap;rounded=0;" vertex="1" parent="1">
                    <mxGeometry x="420" y="260" width="110" height="30" as="geometry"/>
                </mxCell>
                <mxCell id="aP29Cbiko4omW_pPDUiW-5" value="&lt;span style=&quot;color: rgb(0, 0, 0);&quot;&gt;Merchant Contract&lt;/span&gt;" style="shape=umlLifeline;perimeter=lifelinePerimeter;whiteSpace=wrap;html=1;container=1;dropTarget=0;collapsible=0;recursiveResize=0;outlineConnect=0;portConstraint=eastwest;newEdgeStyle={&quot;edgeStyle&quot;:&quot;elbowEdgeStyle&quot;,&quot;elbow&quot;:&quot;vertical&quot;,&quot;curved&quot;:0,&quot;rounded&quot;:0};" vertex="1" parent="1">
                    <mxGeometry x="960" y="130" width="100" height="230" as="geometry"/>
                </mxCell>
                <mxCell id="aP29Cbiko4omW_pPDUiW-6" value="" style="html=1;points=[[0,0,0,0,5],[0,1,0,0,-5],[1,0,0,0,5],[1,1,0,0,-5]];perimeter=orthogonalPerimeter;outlineConnect=0;targetShapes=umlLifeline;portConstraint=eastwest;newEdgeStyle={&quot;curved&quot;:0,&quot;rounded&quot;:0};fillColor=#808080;" vertex="1" parent="aP29Cbiko4omW_pPDUiW-5">
                    <mxGeometry x="45" y="70" width="10" height="120" as="geometry"/>
                </mxCell>
                <mxCell id="aP29Cbiko4omW_pPDUiW-7" value="Customer" style="shape=umlLifeline;perimeter=lifelinePerimeter;whiteSpace=wrap;html=1;container=1;dropTarget=0;collapsible=0;recursiveResize=0;outlineConnect=0;portConstraint=eastwest;newEdgeStyle={&quot;edgeStyle&quot;:&quot;elbowEdgeStyle&quot;,&quot;elbow&quot;:&quot;vertical&quot;,&quot;curved&quot;:0,&quot;rounded&quot;:0};" vertex="1" parent="1">
                    <mxGeometry x="760" y="130" width="100" height="230" as="geometry"/>
                </mxCell>
                <mxCell id="aP29Cbiko4omW_pPDUiW-8" value="" style="html=1;points=[[0,0,0,0,5],[0,1,0,0,-5],[1,0,0,0,5],[1,1,0,0,-5]];perimeter=orthogonalPerimeter;outlineConnect=0;targetShapes=umlLifeline;portConstraint=eastwest;newEdgeStyle={&quot;curved&quot;:0,&quot;rounded&quot;:0};" vertex="1" parent="aP29Cbiko4omW_pPDUiW-7">
                    <mxGeometry x="45" y="60" width="10" height="140" as="geometry"/>
                </mxCell>
                <mxCell id="aP29Cbiko4omW_pPDUiW-9" value="&lt;span style=&quot;color: rgb(0, 0, 0);&quot;&gt;IDProtocol&lt;/span&gt;" style="shape=umlLifeline;perimeter=lifelinePerimeter;whiteSpace=wrap;html=1;container=1;dropTarget=0;collapsible=0;recursiveResize=0;outlineConnect=0;portConstraint=eastwest;newEdgeStyle={&quot;edgeStyle&quot;:&quot;elbowEdgeStyle&quot;,&quot;elbow&quot;:&quot;vertical&quot;,&quot;curved&quot;:0,&quot;rounded&quot;:0};" vertex="1" parent="1">
                    <mxGeometry x="1160" y="130" width="100" height="230" as="geometry"/>
                </mxCell>
                <mxCell id="aP29Cbiko4omW_pPDUiW-10" value="" style="html=1;points=[[0,0,0,0,5],[0,1,0,0,-5],[1,0,0,0,5],[1,1,0,0,-5]];perimeter=orthogonalPerimeter;outlineConnect=0;targetShapes=umlLifeline;portConstraint=eastwest;newEdgeStyle={&quot;curved&quot;:0,&quot;rounded&quot;:0};fillColor=#808080;" vertex="1" parent="aP29Cbiko4omW_pPDUiW-9">
                    <mxGeometry x="45" y="120" width="10" height="20" as="geometry"/>
                </mxCell>
                <mxCell id="aP29Cbiko4omW_pPDUiW-11" value="" style="endArrow=classic;html=1;" edge="1" parent="1">
                    <mxGeometry width="50" height="50" relative="1" as="geometry">
                        <mxPoint x="815.0000000000001" y="200" as="sourcePoint"/>
                        <mxPoint x="1005" y="200" as="targetPoint"/>
                    </mxGeometry>
                </mxCell>
                <mxCell id="aP29Cbiko4omW_pPDUiW-12" value="Initial `purchase` req" style="edgeLabel;html=1;align=center;verticalAlign=middle;resizable=0;points=[];" vertex="1" connectable="0" parent="aP29Cbiko4omW_pPDUiW-11">
                    <mxGeometry x="-0.1381" relative="1" as="geometry">
                        <mxPoint as="offset"/>
                    </mxGeometry>
                </mxCell>
                <mxCell id="aP29Cbiko4omW_pPDUiW-13" value="" style="curved=1;endArrow=classic;html=1;" edge="1" parent="1">
                    <mxGeometry width="50" height="50" relative="1" as="geometry">
                        <mxPoint x="1015" y="220" as="sourcePoint"/>
                        <mxPoint x="1015" y="240" as="targetPoint"/>
                        <Array as="points">
                            <mxPoint x="1110" y="240"/>
                        </Array>
                    </mxGeometry>
                </mxCell>
                <mxCell id="aP29Cbiko4omW_pPDUiW-14" value="handle the purhcase" style="text;html=1;align=left;verticalAlign=middle;whiteSpace=wrap;rounded=0;" vertex="1" parent="1">
                    <mxGeometry x="1060" y="210" width="120" height="30" as="geometry"/>
                </mxCell>
                <mxCell id="aP29Cbiko4omW_pPDUiW-15" value="" style="endArrow=classic;html=1;" edge="1" parent="1">
                    <mxGeometry width="50" height="50" relative="1" as="geometry">
                        <mxPoint x="1015" y="260" as="sourcePoint"/>
                        <mxPoint x="1205" y="260" as="targetPoint"/>
                    </mxGeometry>
                </mxCell>
                <mxCell id="aP29Cbiko4omW_pPDUiW-16" value="Update `UserEntry` &lt;br&gt;(user&#39;s onchain) stats" style="edgeLabel;html=1;align=center;verticalAlign=middle;resizable=0;points=[];" vertex="1" connectable="0" parent="aP29Cbiko4omW_pPDUiW-15">
                    <mxGeometry x="-0.0695" y="-1" relative="1" as="geometry">
                        <mxPoint as="offset"/>
                    </mxGeometry>
                </mxCell>
                <mxCell id="aP29Cbiko4omW_pPDUiW-17" value="" style="endArrow=classic;html=1;" edge="1" parent="1">
                    <mxGeometry width="50" height="50" relative="1" as="geometry">
                        <mxPoint x="1010" y="310" as="sourcePoint"/>
                        <mxPoint x="815" y="310" as="targetPoint"/>
                    </mxGeometry>
                </mxCell>
                <mxCell id="aP29Cbiko4omW_pPDUiW-18" value="Resp" style="edgeLabel;html=1;align=center;verticalAlign=middle;resizable=0;points=[];" vertex="1" connectable="0" parent="aP29Cbiko4omW_pPDUiW-17">
                    <mxGeometry x="-0.0695" y="-1" relative="1" as="geometry">
                        <mxPoint as="offset"/>
                    </mxGeometry>
                </mxCell>
                <mxCell id="aP29Cbiko4omW_pPDUiW-19" value="Customer Purchase" style="text;html=1;align=center;verticalAlign=middle;whiteSpace=wrap;rounded=0;fontSize=24;" vertex="1" parent="1">
                    <mxGeometry x="790" y="80" width="430" height="30" as="geometry"/>
                </mxCell>
                <mxCell id="aP29Cbiko4omW_pPDUiW-22" value="" style="endArrow=classic;html=1;entryX=0;entryY=0;entryDx=0;entryDy=5;entryPerimeter=0;" edge="1" parent="1" source="QQ7fAW_9GDJI_9lPfiGl-5" target="aP29Cbiko4omW_pPDUiW-25">
                    <mxGeometry width="50" height="50" relative="1" as="geometry">
                        <mxPoint x="180" y="340" as="sourcePoint"/>
                        <mxPoint x="360" y="340" as="targetPoint"/>
                    </mxGeometry>
                </mxCell>
                <mxCell id="aP29Cbiko4omW_pPDUiW-23" value="createProduct" style="edgeLabel;html=1;align=center;verticalAlign=middle;resizable=0;points=[];" vertex="1" connectable="0" parent="aP29Cbiko4omW_pPDUiW-22">
                    <mxGeometry x="-0.0695" y="-1" relative="1" as="geometry">
                        <mxPoint as="offset"/>
                    </mxGeometry>
                </mxCell>
            </root>
        </mxGraphModel>
    </diagram>
</mxfile>